<svg width="1680" height="960" viewBox="0 0 1680 960" fill="none" xmlns="http://www.w3.org/2000/svg">
<g id="Frame 1">
<rect width="1680" height="960" fill="url(#paint0_linear)"/>
<path id="Vector 11" d="M1066 654.236H1059.77V648H1057.23V654.236H1051V656.777H1057.23V663H1059.77V656.777H1066V654.236Z" fill="white" fill-opacity="0.2"/>
<path id="Vector 12" d="M1461 506.315H1452.69V498H1449.31V506.315H1441V509.703H1449.31V518H1452.69V509.703H1461V506.315Z" fill="white" fill-opacity="0.2"/>
<path id="Vector 14" d="M131 872.158H126.846V868H125.154V872.158H121V873.852H125.154V878H126.846V873.852H131V872.158Z" fill="white" fill-opacity="0.2"/>
<path id="Vector 15" d="M411 766.315H402.693V758H399.307V766.315H391V769.703H399.307V778H402.693V769.703H411V766.315Z" fill="white" fill-opacity="0.2"/>
<path id="Vector 16" d="M681 766.315H672.693V758H669.307V766.315H661V769.703H669.307V778H672.693V769.703H681V766.315Z" fill="white" fill-opacity="0.2"/>
<path id="Vector 17" d="M536 884.236H529.769V878H527.231V884.236H521V886.777H527.231V893H529.769V886.777H536V884.236Z" fill="white" fill-opacity="0.2"/>
<path id="Vector 18" d="M971 792.158H966.846V788H965.154V792.158H961V793.852H965.154V798H966.846V793.852H971V792.158Z" fill="white" fill-opacity="0.2"/>
<path id="Vector 19" d="M1321 786.315H1312.69V778H1309.31V786.315H1301V789.703H1309.31V798H1312.69V789.703H1321V786.315Z" fill="white" fill-opacity="0.2"/>
<path id="Vector 20" d="M1581 652.158H1576.85V648H1575.15V652.158H1571V653.852H1575.15V658H1576.85V653.852H1581V652.158Z" fill="white" fill-opacity="0.2"/>
<path id="Vector 21" d="M1131 922.158H1126.85V918H1125.15V922.158H1121V923.852H1125.15V928H1126.85V923.852H1131V922.158Z" fill="white" fill-opacity="0.2"/>
<path id="Vector 60" d="M1556 948C1611.22 948 1656 903.236 1656 848C1656 792.765 1611.22 748 1556 748C1500.76 748 1456 792.765 1456 848C1456 903.236 1500.76 948 1556 948Z" fill="#D9D6D6"/>
<path id="Vector 61" d="M1591 488C1596.52 488 1601 483.524 1601 478C1601 472.476 1596.52 468 1591 468C1585.48 468 1581 472.476 1581 478C1581 483.524 1585.48 488 1591 488Z" fill="white" fill-opacity="0.2"/>
<path id="Vector 62" d="M971 688C976.522 688 981 683.524 981 678C981 672.476 976.522 668 971 668C965.476 668 961 672.476 961 678C961 683.524 965.476 688 971 688Z" fill="white" fill-opacity="0.2"/>
<path id="Vector 63" d="M806 908C808.761 908 811 905.762 811 903C811 900.238 808.761 898 806 898C803.238 898 801 900.238 801 903C801 905.762 803.238 908 806 908Z" fill="white" fill-opacity="0.2"/>
<path id="Vector 64" d="M41 868C46.5216 868 51 863.524 51 858C51 852.476 46.5216 848 41 848C35.4765 848 31 852.476 31 858C31 863.524 35.4765 868 41 868Z" fill="white" fill-opacity="0.2"/>
<path id="Vector 65" d="M231 938C236.522 938 241 933.524 241 928C241 922.476 236.522 918 231 918C225.476 918 221 922.476 221 928C221 933.524 225.476 938 231 938Z" fill="white" fill-opacity="0.2"/>
<path id="Vector 66" d="M1168.5 933C1172.64 933 1176 929.643 1176 925.5C1176 921.357 1172.64 918 1168.5 918C1164.36 918 1161 921.357 1161 925.5C1161 929.643 1164.36 933 1168.5 933Z" fill="white" fill-opacity="0.2"/>
<path id="Vector 67" d="M946 74.2363H939.769V68H937.231V74.2363H931V76.7775H937.231V83H939.769V76.7775H946V74.2363Z" fill="white" fill-opacity="0.2"/>
<path id="Vector 68" d="M1521 296.315H1512.69V288H1509.31V296.315H1501V299.703H1509.31V308H1512.69V299.703H1521V296.315Z" fill="white" fill-opacity="0.2"/>
<path id="Vector 69" d="M291 186.315H282.693V178H279.307V186.315H271V189.703H279.307V198H282.693V189.703H291V186.315Z" fill="white" fill-opacity="0.2"/>
<path id="Vector 70" d="M561 186.315H552.693V178H549.307V186.315H541V189.703H549.307V198H552.693V189.703H561V186.315Z" fill="white" fill-opacity="0.2"/>
<path id="Vector 71" d="M416 304.236H409.769V298H407.231V304.236H401V306.777H407.231V313H409.769V306.777H416V304.236Z" fill="white" fill-opacity="0.2"/>
<path id="Vector 72" d="M851 212.158H846.846V208H845.154V212.158H841V213.852H845.154V218H846.846V213.852H851V212.158Z" fill="white" fill-opacity="0.2"/>
<path id="Vector 73" d="M1201 206.315H1192.69V198H1189.31V206.315H1181V209.703H1189.31V218H1192.69V209.703H1201V206.315Z" fill="white" fill-opacity="0.2"/>
<path id="Vector 74" d="M1461 72.1575H1456.85V68H1455.15V72.1575H1451V73.8516H1455.15V78H1456.85V73.8516H1461V72.1575Z" fill="white" fill-opacity="0.2"/>
<path id="Vector 75" d="M1011 342.158H1006.85V338H1005.15V342.158H1001V343.852H1005.15V348H1006.85V343.852H1011V342.158Z" fill="white" fill-opacity="0.2"/>
<path id="Vector 76" d="M1351 238C1356.52 238 1361 233.524 1361 228C1361 222.476 1356.52 218 1351 218C1345.48 218 1341 222.476 1341 228C1341 233.524 1345.48 238 1351 238Z" fill="white" fill-opacity="0.2"/>
<path id="Vector 77" d="M851 108C856.522 108 861 103.524 861 98C861 92.4765 856.522 88 851 88C845.476 88 841 92.4765 841 98C841 103.524 845.476 108 851 108Z" fill="white" fill-opacity="0.2"/>
<path id="Vector 78" d="M686 328C688.761 328 691 325.762 691 323C691 320.238 688.761 318 686 318C683.238 318 681 320.238 681 323C681 325.762 683.238 328 686 328Z" fill="white" fill-opacity="0.2"/>
<path id="Vector 79" d="M111 358C116.522 358 121 353.524 121 348C121 342.476 116.522 338 111 338C105.476 338 101 342.476 101 348C101 353.524 105.476 358 111 358Z" fill="white" fill-opacity="0.2"/>
<path id="Vector 80" d="M1048.5 353C1052.64 353 1056 349.643 1056 345.5C1056 341.357 1052.64 338 1048.5 338C1044.36 338 1041 341.357 1041 345.5C1041 349.643 1044.36 353 1048.5 353Z" fill="white" fill-opacity="0.2"/>
<path id="Vector 81" d="M866 359.236H859.769V353H857.231V359.236H851V361.777H857.231V368H859.769V361.777H866V359.236Z" fill="white" fill-opacity="0.2"/>
<path id="Vector 82" d="M1441 581.315H1432.69V573H1429.31V581.315H1421V584.703H1429.31V593H1432.69V584.703H1441V581.315Z" fill="white" fill-opacity="0.2"/>
<path id="Vector 83" d="M211 471.315H202.693V463H199.307V471.315H191V474.703H199.307V483H202.693V474.703H211V471.315Z" fill="white" fill-opacity="0.2"/>
<path id="Vector 84" d="M481 471.315H472.693V463H469.307V471.315H461V474.703H469.307V483H472.693V474.703H481V471.315Z" fill="white" fill-opacity="0.2"/>
<path id="Vector 85" d="M336 589.236H329.769V583H327.231V589.236H321V591.777H327.231V598H329.769V591.777H336V589.236Z" fill="white" fill-opacity="0.2"/>
<path id="Vector 86" d="M771 497.158H766.846V493H765.154V497.158H761V498.852H765.154V503H766.846V498.852H771V497.158Z" fill="white" fill-opacity="0.2"/>
<path id="Vector 87" d="M1121 491.315H1112.69V483H1109.31V491.315H1101V494.703H1109.31V503H1112.69V494.703H1121V491.315Z" fill="white" fill-opacity="0.2"/>
<path id="Vector 88" d="M1381 357.158H1376.85V353H1375.15V357.158H1371V358.852H1375.15V363H1376.85V358.852H1381V357.158Z" fill="white" fill-opacity="0.2"/>
<path id="Vector 89" d="M931 627.158H926.846V623H925.154V627.158H921V628.852H925.154V633H926.846V628.852H931V627.158Z" fill="white" fill-opacity="0.2"/>
<path id="Vector 90" d="M1271 523C1276.52 523 1281 518.524 1281 513C1281 507.476 1276.52 503 1271 503C1265.48 503 1261 507.476 1261 513C1261 518.524 1265.48 523 1271 523Z" fill="white" fill-opacity="0.2"/>
<path id="Vector 96" d="M1516 873C1529.8 873 1541 861.809 1541 848C1541 834.191 1529.8 823 1516 823C1502.19 823 1491 834.191 1491 848C1491 861.809 1502.19 873 1516 873Z" fill="#8D8D8D"/>
<path id="Vector 97" d="M1563 793C1568.52 793 1573 788.524 1573 783C1573 777.476 1568.52 773 1563 773C1557.48 773 1553 777.476 1553 783C1553 788.524 1557.48 793 1563 793Z" fill="#8D8D8D"/>
<path id="Vector 98" d="M1613 853C1618.52 853 1623 848.524 1623 843C1623 837.476 1618.52 833 1613 833C1607.48 833 1603 837.476 1603 843C1603 848.524 1607.48 853 1613 853Z" fill="#8D8D8D"/>
<path id="Vector 99" d="M1583 923C1588.52 923 1593 918.524 1593 913C1593 907.476 1588.52 903 1583 903C1577.48 903 1573 907.476 1573 913C1573 918.524 1577.48 923 1583 923Z" fill="#8D8D8D"/>
<path id="Vector 91" d="M771 393C776.522 393 781 388.524 781 383C781 377.476 776.522 373 771 373C765.476 373 761 377.476 761 383C761 388.524 765.476 393 771 393Z" fill="white" fill-opacity="0.2"/>
<path id="Vector 92" d="M606 613C608.761 613 611 610.762 611 608C611 605.238 608.761 603 606 603C603.238 603 601 605.238 601 608C601 610.762 603.238 613 606 613Z" fill="white" fill-opacity="0.2"/>
<path id="Vector 93" d="M31 643C36.5216 643 41 638.524 41 633C41 627.476 36.5216 623 31 623C25.4765 623 21 627.476 21 633C21 638.524 25.4765 643 31 643Z" fill="white" fill-opacity="0.2"/>
<path id="Vector 94" d="M968.5 638C972.641 638 976 634.643 976 630.5C976 626.357 972.641 623 968.5 623C964.357 623 961 626.357 961 630.5C961 634.643 964.357 638 968.5 638Z" fill="white" fill-opacity="0.2"/>
<path id="Vector 60_2" opacity="0.2" d="M1294.18 714.36C1301.46 714.36 1307.36 708.459 1307.36 701.18C1307.36 693.901 1301.46 688 1294.18 688C1286.9 688 1281 693.901 1281 701.18C1281 708.459 1286.9 714.36 1294.18 714.36Z" fill="#FFBC58"/>
<path id="Vector 95" opacity="0.2" d="M172.5 729C176.642 729 180 725.642 180 721.5C180 717.358 176.642 714 172.5 714C168.358 714 165 717.358 165 721.5C165 725.642 168.358 729 172.5 729Z" fill="#FFBC58"/>
<path id="Vector 60_3" opacity="0.2" d="M1645.93 145.47C1645.93 153.721 1642.78 161.661 1637.14 167.676C1631.49 173.691 1623.76 177.329 1615.53 177.85C1614.86 177.85 1614.17 177.92 1613.48 177.92C1608.5 177.923 1603.58 176.78 1599.12 174.579C1594.65 172.378 1590.75 169.178 1587.71 165.227C1584.68 161.277 1582.6 156.681 1581.62 151.796C1580.65 146.911 1580.82 141.868 1582.11 137.057C1583.4 132.246 1585.78 127.797 1589.06 124.053C1592.34 120.309 1596.45 117.371 1601.05 115.466C1605.65 113.562 1610.63 112.742 1615.6 113.071C1620.57 113.399 1625.4 114.867 1629.71 117.36C1633.47 119.541 1636.75 122.451 1639.37 125.92C1643.63 131.545 1645.94 138.412 1645.93 145.47Z" fill="#BFBFBF"/>
</g>
<defs>
<linearGradient id="paint0_linear" x1="840" y1="452" x2="1680" y2="928" gradientUnits="userSpaceOnUse">
<stop stop-color="#1B1B1B"/>
<stop offset="1" stop-color="#1B1B1B" stop-opacity="0.66"/>
</linearGradient>
</defs>
</svg>
