<?xml version="1.0" encoding="iso-8859-1"?>
<!-- Generator: Adobe Illustrator 19.1.0, SVG Export Plug-In . SVG Version: 6.00 Build 0)  -->
<svg version="1.1" id="Capa_1" xmlns="http://www.w3.org/2000/svg" xmlns:xlink="http://www.w3.org/1999/xlink" x="0px" y="0px"
	 viewBox="0 0 220.125 220.125" style="enable-background:new 0 0 220.125 220.125;" xml:space="preserve">
<g>
	<g id="group-91svg">
		<path id="path-1_159_" style="fill:#142A3B;" d="M100.494,56.741c-2.01,0-3-1.614-3-3.605V26.269
			c0-10.036,7.89-17.897,18.386-17.897c2.009,0,3.473,1.613,3.473,3.605c0,1.991-2.02,3.604-4.029,3.604
			c-6.521,0-11.83,4.595-11.83,10.688v26.867C103.494,55.127,102.504,56.741,100.494,56.741z"/>
		<path id="path-2_159_" style="fill:#FF3A2F;" d="M105.275,64.208c3.124,0,6.175,0.282,9.186,0.687V47.403H88.989v18.024h3.579
			C96.688,64.653,100.927,64.208,105.275,64.208z"/>
		<path id="path-3_159_" style="opacity:0.35;fill:#020403;enable-background:new    ;" d="M110.821,47.403v10.282
			c-3.011-0.404-6.061-0.686-9.185-0.686c-4.327,0-8.545,0.443-12.647,1.211v7.217h3.579c4.12-0.774,8.359-1.219,12.707-1.219
			c3.124,0,6.175,0.282,9.186,0.687V47.403H110.821z"/>
		<path id="path-4_158_" style="fill:#142A3B;" d="M173.128,129.745c0,37.112-30.363,67.219-67.853,67.219
			c-37.474,0-67.852-30.107-67.852-67.219c0-37.123,30.378-67.216,67.852-67.216C142.765,62.53,173.128,92.623,173.128,129.745z"/>
		<path id="path-5_158_" style="opacity:0.35;fill:#020403;enable-background:new    ;" d="M121.112,64.102
			c20.207,11.64,33.821,33.267,33.821,58.093c0,37.11-30.362,67.218-67.852,67.218c-5.458,0-10.737-0.708-15.822-1.914
			c10.009,5.767,21.604,9.124,34.016,9.124c37.49,0,67.853-30.108,67.853-67.219C173.128,97.69,150.942,71.176,121.112,64.102z"/>
		<path id="path-6_156_" style="fill:#FFFFFF;" d="M56.662,126.142c-2.009,0-3.639-1.613-3.639-3.604
			c0-22.58,18.542-40.948,41.336-40.948c2.01,0,3.638,1.614,3.638,3.604c0,1.991-1.628,3.605-3.638,3.605
			c-18.779,0-34.058,15.135-34.058,33.739C60.301,124.529,58.672,126.142,56.662,126.142z"/>
		<path id="path-7_155_" style="fill:#0CB04A;" d="M160.667,190.417h15.703c3.028,0,5.483,1.348,5.483,3.012
			s-2.455,3.013-5.483,3.013h-0.731c-3.027,0-5.482,1.349-5.482,3.012c0,1.665,2.455,3.013,5.482,3.013h33.758
			c3.028,0,5.482,1.349,5.482,3.013c0,1.663-2.454,3.013-5.482,3.013h-40.568H85.908c-3.028,0-5.482-1.35-5.482-3.013
			c0-1.664,2.454-3.013,5.482-3.013h9.369c3.028,0,5.482-1.348,5.482-3.013c0-1.663-2.454-3.012-5.482-3.012H50.688
			c-3.027,0-5.482-1.349-5.482-3.013s2.455-3.012,5.482-3.012h10.539H160.667z"/>
		<path id="path-8_151_" style="fill:#0CB04A;" d="M203.49,79.456h4.819c0.928,0,1.682,0.569,1.682,1.271
			c0,0.701-0.754,1.271-1.682,1.271h-0.225c-0.929,0-1.682,0.568-1.682,1.269c0,0.703,0.753,1.273,1.682,1.273h10.358
			c0.93,0,1.683,0.568,1.683,1.27c0,0.702-0.753,1.271-1.683,1.271h-12.448h-25.443c-0.929,0-1.682-0.569-1.682-1.271
			c0-0.702,0.753-1.27,1.682-1.27h2.875c0.929,0,1.682-0.57,1.682-1.273c0-0.701-0.753-1.269-1.682-1.269h-13.682
			c-0.929,0-1.683-0.57-1.683-1.271c0-0.702,0.754-1.271,1.683-1.271h3.233H203.49z"/>
		<path id="path-9_145_" style="fill:#0CB04A;" d="M41.571,211.753c5.648,0,10.228-1.117,10.228-2.494
			c0-1.378-4.58-2.495-10.228-2.495H10.228C4.579,206.764,0,207.882,0,209.26c0,1.377,4.579,2.494,10.228,2.494H41.571z"/>
	</g>
</g>
<g>
</g>
<g>
</g>
<g>
</g>
<g>
</g>
<g>
</g>
<g>
</g>
<g>
</g>
<g>
</g>
<g>
</g>
<g>
</g>
<g>
</g>
<g>
</g>
<g>
</g>
<g>
</g>
<g>
</g>
</svg>
