<?xml version="1.0" encoding="iso-8859-1"?>
<!-- Generator: Adobe Illustrator 19.0.0, SVG Export Plug-In . SVG Version: 6.00 Build 0)  -->
<svg version="1.1" id="Capa_1" xmlns="http://www.w3.org/2000/svg" xmlns:xlink="http://www.w3.org/1999/xlink" x="0px" y="0px"
	 viewBox="0 0 503.52 503.52" style="enable-background:new 0 0 503.52 503.52;" xml:space="preserve">
<g>
	<g>
		<g>
			<path d="M344.56,121.456c-9.666-6.892-20.065-12.692-31.008-17.296l-12.368,29.504c8.743,3.685,17.055,8.321,24.784,13.824
				L344.56,121.456z"/>
			<path d="M391.584,173.952c-5.776-10.333-12.683-19.992-20.592-28.8l-23.84,21.344c6.329,7.079,11.861,14.832,16.496,23.12
				L391.584,173.952z"/>
			<path d="M374.608,215.664c19.829,67.744-19.013,138.736-86.757,158.565c-67.744,19.829-138.736-19.013-158.565-86.757
				c-19.829-67.744,19.013-138.736,86.757-158.565c18.821-5.509,38.657-6.613,57.973-3.227l5.52-31.536
				c-9.174-1.582-18.466-2.38-27.776-2.384c-88.268,0.114-159.731,71.762-159.617,160.031s71.762,159.731,160.031,159.617
				c88.268-0.114,159.731-71.762,159.617-160.031c-0.02-15.12-2.185-30.161-6.431-44.673L374.608,215.664z"/>
			<path d="M503.52,251.76l-40.992-56.48l7.28-69.408l-63.744-28.416l-28.416-63.744l-69.408,7.28L251.76,0l-56.48,40.992
				l-69.408-7.28L97.456,97.456l-63.744,28.416l7.28,69.408L0,251.76l40.992,56.48l-7.28,69.408l63.744,28.416l28.416,63.744
				l69.408-7.28l56.48,40.992l56.48-40.992l69.408,7.28l28.416-63.744l63.744-28.416l-7.28-69.408L503.52,251.76z M381.808,381.808
				l-24,53.744l-58.432-6.192L251.76,464l-47.616-34.64l-58.496,6.128l-24-53.744l-53.744-24l6.256-58.368L39.52,251.76
				l34.64-47.616l-6.192-58.496l53.744-24l24-53.744l58.496,6.128L251.76,39.52l47.616,34.64l58.496-6.128l24,53.744l53.744,24
				l-6.256,58.368L464,251.76l-34.64,47.616l6.128,58.496L381.808,381.808z"/>
			<polygon points="183.072,240.448 160.448,263.072 219.76,322.384 327.072,215.072 304.448,192.448 219.76,277.136 			"/>
		</g>
	</g>
</g>
<g>
</g>
<g>
</g>
<g>
</g>
<g>
</g>
<g>
</g>
<g>
</g>
<g>
</g>
<g>
</g>
<g>
</g>
<g>
</g>
<g>
</g>
<g>
</g>
<g>
</g>
<g>
</g>
<g>
</g>
</svg>
